<svg xmlns="http://www.w3.org/2000/svg" viewBox="0 0 400 400" width="400" height="400">
  <defs>
    <radialGradient id="nebula" cx="50%" cy="50%" r="55%">
      <stop offset="0%" stop-color="#7b4bd8"/>
      <stop offset="35%" stop-color="#3a1a5c"/>
      <stop offset="75%" stop-color="#0d0a2e"/>
      <stop offset="100%" stop-color="#000000"/>
    </radialGradient>
    <radialGradient id="core" cx="50%" cy="50%" r="50%">
      <stop offset="0%" stop-color="#fff8e7"/>
      <stop offset="60%" stop-color="#ffd87a"/>
      <stop offset="100%" stop-color="#ff6a3d" stop-opacity="0.4"/>
    </radialGradient>
  </defs>
  <rect width="400" height="400" fill="#000"/>
  <circle cx="200" cy="200" r="200" fill="url(#nebula)"/>
  <g opacity="0.5">
    <path d="M 80 150 Q 200 50 320 150 Q 350 230 280 280 Q 200 360 120 270 Q 50 230 80 150 Z" fill="none" stroke="#a87bff" stroke-width="1.2" opacity="0.6"/>
    <path d="M 120 180 Q 200 130 280 180 Q 300 230 250 250 Q 200 280 150 240 Q 110 220 120 180 Z" fill="none" stroke="#d8b8ff" stroke-width="0.8" opacity="0.5"/>
  </g>
  <g transform="translate(200,200)">
    <circle r="32" fill="url(#core)"/>
    <circle r="22" fill="#fff8e7"/>
    <g stroke="#fff8e7" stroke-width="1.2" opacity="0.55" stroke-linecap="round">
      <line x1="-140" y1="0" x2="-50" y2="0"/>
      <line x1="50" y1="0" x2="140" y2="0"/>
      <line x1="0" y1="-140" x2="0" y2="-50"/>
      <line x1="0" y1="50" x2="0" y2="140"/>
      <line x1="-100" y1="-100" x2="-40" y2="-40"/>
      <line x1="40" y1="40" x2="100" y2="100"/>
      <line x1="-100" y1="100" x2="-40" y2="40"/>
      <line x1="40" y1="-40" x2="100" y2="-100"/>
    </g>
  </g>
  <g fill="#ffffff">
    <circle cx="56" cy="78" r="1.8"/>
    <circle cx="340" cy="118" r="2.4"/>
    <circle cx="78" cy="318" r="2"/>
    <circle cx="320" cy="298" r="1.6"/>
    <circle cx="148" cy="58" r="1.2"/>
    <circle cx="280" cy="346" r="1.8"/>
    <circle cx="42" cy="220" r="1.4"/>
    <circle cx="362" cy="240" r="1"/>
    <circle cx="186" cy="368" r="1.5"/>
    <circle cx="220" cy="36" r="1.3"/>
  </g>
</svg>
