<svg xmlns="http://www.w3.org/2000/svg" viewBox="0 0 1200 320" width="1200" height="320">
  <defs>
    <linearGradient id="bg" x1="0" y1="0" x2="1" y2="1">
      <stop offset="0%" stop-color="#0a0420"/>
      <stop offset="50%" stop-color="#1a0f3d"/>
      <stop offset="100%" stop-color="#040214"/>
    </linearGradient>
    <radialGradient id="glow" cx="50%" cy="50%" r="50%">
      <stop offset="0%" stop-color="#7b4bd8" stop-opacity="0.7"/>
      <stop offset="100%" stop-color="#7b4bd8" stop-opacity="0"/>
    </radialGradient>
    <radialGradient id="core2" cx="50%" cy="50%" r="50%">
      <stop offset="0%" stop-color="#fff8e7"/>
      <stop offset="100%" stop-color="#ffd87a" stop-opacity="0.5"/>
    </radialGradient>
  </defs>
  <rect width="1200" height="320" fill="url(#bg)"/>
  <ellipse cx="950" cy="160" rx="300" ry="180" fill="url(#glow)"/>
  <ellipse cx="200" cy="280" rx="250" ry="120" fill="url(#glow)" opacity="0.5"/>
  <g transform="translate(950,160)">
    <circle r="22" fill="url(#core2)"/>
    <circle r="14" fill="#fff8e7"/>
    <g stroke="#fff8e7" stroke-width="1" opacity="0.5">
      <line x1="-100" y1="0" x2="-30" y2="0"/>
      <line x1="30" y1="0" x2="100" y2="0"/>
      <line x1="0" y1="-100" x2="0" y2="-30"/>
      <line x1="0" y1="30" x2="0" y2="100"/>
    </g>
  </g>
  <g fill="#fff">
    <circle cx="80" cy="60" r="1.6"/>
    <circle cx="150" cy="240" r="2"/>
    <circle cx="320" cy="80" r="1.4"/>
    <circle cx="420" cy="200" r="1.8"/>
    <circle cx="540" cy="50" r="1.2"/>
    <circle cx="680" cy="260" r="2.2"/>
    <circle cx="780" cy="100" r="1.4"/>
    <circle cx="1140" cy="50" r="1.6"/>
    <circle cx="1100" cy="280" r="2"/>
    <circle cx="600" cy="170" r="1"/>
  </g>
  <g font-family="Georgia, 'Times New Roman', serif" fill="#ffffff">
    <text x="80" y="170" font-size="92" font-weight="700" letter-spacing="8">NYXARA</text>
    <text x="80" y="220" font-size="22" fill="#a87bff" letter-spacing="3">ON-CHAIN SPACE EXPLORATION ON STELLAR</text>
  </g>
</svg>
